{"title":"A.Fighting.Man.2014.WEBRip.XviD.AC3-N3kr4","uid":10332594,"size":1241631394,"categoryP":"video","categoryS":"hd___movies","magnet":"?xt=urn:btih:e21d7c561ca7ceed9ed8aa2c33cc00b84527a669&amp;dn=A.Fighting.Man.2014.WEBRip.XviD.AC3-N3kr4&amp;tr=udp%3A%2F%2Ftracker.openbittorrent.com%3A80&amp;tr=udp%3A%2F%2Fopen.demonii.com%3A1337&amp;tr=udp%3A%2F%2Ftracker.coppersurfer.tk%3A6969&amp;tr=udp%3A%2F%2Fexodus.desync.com%3A6969","seeders":0,"leechers":0,"uploader":"Falcon.G13","files":2,"time":1402428626,"description":"A Fighting Man (I) (2014)\n - Drama - 25 April 2014 (Canada)\n7.0 Your rating: -/10 Ratings: 7.0/10 from 90 users \nReviews: 1 user | 1 critic\n\nAn aging fighter (Dominic Purcell) in search of redemption\n steps into the ring with a hungry young pugilist \n(Izaak Smith) with something to prove in this boxing\n drama featuring James Caan...\n &lt;a href=&quot;\nhttp://i.imgur.com/d8m75f8.jpg&quot; rel=&quot;nofollow&quot; target=&quot;_NEW&quot;&gt;\nhttp://i.imgur.com/d8m75f8.jpg&lt;/a&gt; &lt;a href=&quot;\nhttp://i.imgur.com/AkFu3tZ.jpg&quot; rel=&quot;nofollow&quot; target=&quot;_NEW&quot;&gt;\nhttp://i.imgur.com/AkFu3tZ.jpg&lt;/a&gt; &lt;a href=&quot;\nhttp://i.imgur.com/PEolItC.jpg&quot; rel=&quot;nofollow&quot; target=&quot;_NEW&quot;&gt;\nhttp://i.imgur.com/PEolItC.jpg&lt;/a&gt; &lt;a href=&quot;\nhttp://i.imgur.com/TWrxzyc.jpg&quot; rel=&quot;nofollow&quot; target=&quot;_NEW&quot;&gt;\nhttp://i.imgur.com/TWrxzyc.jpg&lt;/a&gt; &lt;a href=&quot;\nhttp://i.imgur.com/0gZYKiQ.jpg&quot; rel=&quot;nofollow&quot; target=&quot;_NEW&quot;&gt;\nhttp://i.imgur.com/0gZYKiQ.jpg&lt;/a&gt; &lt;a href=&quot;\nhttp://i.imgur.com/nWwkTUy.jpg&quot; rel=&quot;nofollow&quot; target=&quot;_NEW&quot;&gt;\nhttp://i.imgur.com/nWwkTUy.jpg&lt;/a&gt; &lt;a href=&quot;\nhttp://i.imgur.com/E09XoTc.jpg&quot; rel=&quot;nofollow&quot; target=&quot;_NEW&quot;&gt;\nhttp://i.imgur.com/E09XoTc.jpg&lt;/a&gt; &lt;a href=&quot;\nhttp://i.imgur.com/SItQmqB.jpg&quot; rel=&quot;nofollow&quot; target=&quot;_NEW&quot;&gt;\nhttp://i.imgur.com/SItQmqB.jpg&lt;/a&gt;\n\nGeneral\nComplete name : A.Fighting.Man.2014.WEBRip.XviD.AC3-N3kr4.avi\nFormat : AVI\nFormat/Info : Audio Video Interleave\nFormat profile : OpenDML\nFile size : 1.16 GiB\nDuration : 1h 28mn\nOverall bit rate : 1 876 Kbps\nWriting application : Lavf55.7.100\n\nVideo\nID : 0\nFormat : MPEG-4 Visual\nFormat profile : Advanced Simple@L1\nFormat settings, BVOP : No\nFormat settings, QPel : No\nFormat settings, GMC : No warppoints\nFormat settings, Matrix : Default (H.263)\nCodec ID : XVID\nCodec ID/Hint : XviD\nDuration : 1h 28mn\nBit rate : 1 222 Kbps\nWidth : 720 pixels\nHeight : 304 pixels\nDisplay aspect ratio : 2.35:1\nFrame rate : 23.976 fps\nColor space : YUV\nChroma subsampling : 4:2:0\nBit depth : 8 bits\nScan type : Progressive\nCompression mode : Lossy\nBits/(Pixel*Frame) : 0.233\nStream size : 771 MiB (65%)\nWriting library : Lavc55.12.100\n\nAudio\nID : 1\nFormat : AC-3\nFormat/Info : Audio Coding 3\nMode extension : CM (complete main)\nFormat settings, Endianness : Big\nCodec ID : 2000\nDuration : 1h 28mn\nBit rate mode : Constant\nBit rate : 640 Kbps\nChannel(s) : 6 channels\nChannel positions : Front: L C R, Side: L R, LFE\nSampling rate : 48.0 KHz\nBit depth : 16 bits\nCompression mode : Lossy\nStream size : 404 MiB (34%)\nAlignment : Aligned on interleaves\nInterleave, duration : 32 ms (0.77 video frame)\nInterleave, preload duration : 32 ms","torrent":{"xt":"urn:btih:e21d7c561ca7ceed9ed8aa2c33cc00b84527a669","amp;dn":"A.Fighting.Man.2014.WEBRip.XviD.AC3-N3kr4","amp;tr":["udp%3A%2F%2Ftracker.openbittorrent.com%3A80","udp%3A%2F%2Fopen.demonii.com%3A1337","udp%3A%2F%2Ftracker.coppersurfer.tk%3A6969","udp%3A%2F%2Fexodus.desync.com%3A6969"],"infoHash":"e21d7c561ca7ceed9ed8aa2c33cc00b84527a669","infoHashBuffer":{"type":"Buffer","data":[226,29,124,86,28,167,206,237,158,216,170,44,51,204,0,184,69,39,166,105]},"announce":[],"urlList":[]}}